HIERARCHY
ROOT Hips
{
	OFFSET -3.958830 18.904000 13.208200
	CHANNELS 6 Xposition Yposition Zposition Zrotation Yrotation Xrotation 
	JOINT LHipJoint
	{
		OFFSET 0.000000 0.000000 0.000000
		CHANNELS 3 Zrotation Yrotation Xrotation
		JOINT LeftUpLeg
		{
			OFFSET 1.800000 -1.400000 0.085000
			CHANNELS 3 Zrotation Yrotation Xrotation
			JOINT LeftLeg
			{
				OFFSET 2.215000 -6.000000 0.000000
				CHANNELS 3 Zrotation Yrotation Xrotation
				JOINT LeftFoot
				{
					OFFSET 2.500000 -6.900000 0.000000
					CHANNELS 3 Zrotation Yrotation Xrotation
					JOINT LeftToeBase
					{
						OFFSET 0.200000 -0.500000 1.950000
						CHANNELS 3 Zrotation Yrotation Xrotation
						End Site
						{
							OFFSET 0.000000 0.000000 0.000000
						}
					}
				}
			}
		}
	}
	JOINT RHipJoint
	{
		OFFSET 0.000000 0.000000 0.000000
		CHANNELS 3 Zrotation Yrotation Xrotation
		JOINT RightUpLeg
		{
			OFFSET -1.800000 -1.400000 0.085000
			CHANNELS 3 Zrotation Yrotation Xrotation
			JOINT RightLeg
			{
				OFFSET -2.215000 -6.000000 0.000000
				CHANNELS 3 Zrotation Yrotation Xrotation
				JOINT RightFoot
				{
					OFFSET -2.500000 -6.900000 0.000000
					CHANNELS 3 Zrotation Yrotation Xrotation
					JOINT RightToeBase
					{
						OFFSET -0.200000 -0.500000 1.950000
						CHANNELS 3 Zrotation Yrotation Xrotation
						End Site
						{
							OFFSET 0.000000 0.000000 0.000000
						}
					}
				}
			}
		}
	}
	JOINT LowerBack
	{
		OFFSET 0.000000 0.000000 0.000000
		CHANNELS 3 Zrotation Yrotation Xrotation
		JOINT Spine
		{
			OFFSET -0.087000 1.940000 -0.288900
			CHANNELS 3 Zrotation Yrotation Xrotation
			JOINT Spine1
			{
				OFFSET 0.000000 1.950000 0.060000
				CHANNELS 3 Zrotation Yrotation Xrotation
				JOINT Neck
				{
					OFFSET 0.000000 0.000000 0.000000
					CHANNELS 3 Zrotation Yrotation Xrotation
					JOINT Neck1
					{
						OFFSET 0.000000 1.600000 0.340000
						CHANNELS 3 Zrotation Yrotation Xrotation
						JOINT Head
						{
							OFFSET 0.000000 1.667000 -0.240000
							CHANNELS 3 Zrotation Yrotation Xrotation
							End Site
							{
								OFFSET 0.000000 0.000000 0.000000
							}
						}
					}
				}
				JOINT LeftShoulder
				{
					OFFSET 0.000000 0.000000 0.000000
					CHANNELS 3 Zrotation Yrotation Xrotation
					JOINT LeftArm
					{
						OFFSET 2.700000 1.550000 -0.730000
						CHANNELS 3 Zrotation Yrotation Xrotation
						JOINT LeftForeArm
						{
							OFFSET 5.450000 0.000000 0.000000
							CHANNELS 3 Zrotation Yrotation Xrotation
							JOINT LeftHand
							{
								OFFSET 3.450000 0.000000 0.000000
								CHANNELS 3 Zrotation Yrotation Xrotation
								JOINT LeftHandIndex1
								{
									OFFSET 0.750000 0.000000 0.000000
									CHANNELS 3 Zrotation Yrotation Xrotation
									End Site
									{
										OFFSET 0.000000 0.000000 0.000000
									}
								}
							}
						}
					}
				}
				JOINT RightShoulder
				{
					OFFSET 0.000000 0.000000 0.000000
					CHANNELS 3 Zrotation Yrotation Xrotation
					JOINT RightArm
					{
						OFFSET -2.700000 1.550000 -0.730000
						CHANNELS 3 Zrotation Yrotation Xrotation
						JOINT RightForeArm
						{
							OFFSET -5.450000 0.000000 0.000000
							CHANNELS 3 Zrotation Yrotation Xrotation
							JOINT RightHand
							{
								OFFSET -3.450000 0.000000 0.000000
								CHANNELS 3 Zrotation Yrotation Xrotation
								JOINT RightHandIndex1
								{
									OFFSET -0.750000 0.000000 0.000000
									CHANNELS 3 Zrotation Yrotation Xrotation
									End Site
									{
										OFFSET 0.000000 0.000000 0.000000
									}
								}
							}
						}
					}
				}
			}
		}
	}
}
MOTION
Frames: 12
Frame Time: 0.016667
-0.615990 16.759800 -3.961130 -2.626241 0.380462 3.534606 -15.171764 13.477653 2.576305 11.043085 -0.904886 -8.071989 -5.032069 5.217977 8.798542 -0.353427 4.286567 3.304806 -0.014650 -0.263260 -0.035870 18.166597 -11.059706 2.565138 -14.325505 0.955560 -22.072059 9.819685 -6.955057 18.455542 0.091557 -3.903554 3.043600 -0.026530 0.507310 0.145360 -3.424544 -1.449887 -6.849192 4.625216 -1.940446 3.240700 1.690975 -2.367661 5.388627 0.930192 0.694955 -8.680038 0.099676 -1.190858 29.168325 -2.548460 -0.380220 0.545180 -11.690726 -3.736668 3.509928 -60.551110 -11.285014 -2.723394 13.085805 -31.810355 -5.553424 -3.957360 2.862838 0.188320 0.360240 -0.298340 0.119500 10.339583 3.534610 4.472592 60.040119 6.610131 -10.465140 -11.436391 43.019238 -6.236290 1.967528 -1.431237 -0.309220 0.192960 0.138540 -0.088810 
-0.626270 16.763790 -3.959130 -2.715771 0.449056 3.552493 -15.155700 13.490141 2.589683 11.152968 -0.914481 -8.118111 -5.010514 5.200554 8.712935 -0.353507 4.283584 3.308044 -0.020340 -0.273230 -0.043400 18.176978 -11.071670 2.559013 -13.911703 0.982703 -21.856380 9.528238 -6.799929 18.194923 0.098513 -3.839160 3.073264 -0.032790 0.510220 0.141530 -3.464288 -1.458973 -6.869161 5.228575 -2.154498 3.361058 1.081796 -2.526755 5.394017 1.047209 0.387915 -8.815234 -0.429217 -0.984008 29.218993 -2.429280 -0.470060 0.653320 -11.819375 -3.972326 3.494022 -60.106616 -11.030705 -2.842305 14.850053 -30.393578 -5.785210 -3.959259 2.853843 0.194250 0.355310 -0.300720 0.121720 10.164371 3.939164 4.782188 59.833793 6.379042 -10.835190 -10.814594 44.402839 -6.234884 1.956112 -1.437694 -0.313790 0.194760 0.141090 -0.087350 
-0.646400 16.767150 -3.949610 -2.593268 0.719695 3.767466 -15.138433 13.491026 2.615642 11.164632 -0.947809 -8.322746 -5.178562 5.190027 8.483352 -0.344988 4.275450 3.323243 -0.028990 -0.282220 -0.053750 18.192204 -11.073655 2.541460 -13.498472 0.978783 -21.600761 9.095918 -6.560685 17.731254 0.115962 -3.751603 3.116918 -0.035960 0.525280 0.129500 -3.516500 -1.482728 -6.879872 5.928316 -2.528324 3.389603 0.044961 -2.809212 5.349634 1.211480 -0.141483 -8.925190 -1.271371 -0.713013 28.673071 -2.343980 -0.620700 0.929840 -11.739713 -3.894955 3.306481 -59.405956 -10.701558 -2.806600 17.330403 -27.647155 -5.855350 -3.978225 2.845315 0.184210 0.356920 -0.313820 0.129240 9.643774 4.167752 5.216005 59.705361 5.885202 -11.456183 -9.392377 47.327171 -6.175405 1.937689 -1.466497 -0.321680 0.204280 0.138270 -0.078640 
-0.676030 16.767350 -3.929850 -2.375566 1.080451 4.192958 -15.119374 13.462477 2.635721 11.098910 -0.989656 -8.544815 -5.289421 5.108974 7.957620 -0.336060 4.257253 3.350153 -0.044890 -0.294280 -0.090770 18.218162 -11.074668 2.511771 -13.041605 0.976766 -21.309480 8.485238 -6.226783 17.024223 0.152346 -3.663416 3.172557 -0.033830 0.567720 0.124320 -3.588480 -1.463386 -6.850273 6.666856 -2.858570 3.105765 -1.242991 -3.062034 5.435294 1.353727 -0.697457 -8.986409 -2.020234 -0.472506 27.248209 -2.154890 -0.930310 1.683470 -11.319659 -3.402655 3.042434 -58.450173 -10.109582 -2.865772 19.412805 -25.253663 -5.744427 -4.021643 2.865097 0.145670 0.384070 -0.351840 0.146690 8.806446 3.990795 5.650670 59.627362 5.119603 -12.096757 -6.659903 51.470510 -5.718653 1.904240 -1.543716 -0.328570 0.209610 0.142440 -0.058190 
-0.705640 16.775180 -3.913340 -2.250546 1.377640 4.544739 -15.092761 13.428153 2.667409 11.163294 -1.021548 -8.635228 -5.488100 5.044472 7.348717 -0.324480 4.254432 3.366617 -0.066580 -0.316300 -0.119420 18.247449 -11.082162 2.496741 -12.546585 1.028571 -21.213400 7.937502 -5.984169 16.681710 0.177485 -3.594887 3.208067 -0.042120 0.596270 0.122670 -3.674666 -1.413435 -6.856466 7.691681 -3.276048 3.061754 -2.836993 -3.359025 5.432596 1.688230 -1.217042 -9.183176 -2.702724 -0.162090 26.144685 -2.240420 -0.937040 2.284390 -11.309266 -3.190165 2.901337 -56.930473 -8.833933 -3.290351 21.854452 -23.057720 -5.601727 -4.055109 2.883231 0.123450 0.400690 -0.376720 0.154130 7.974029 4.120210 6.218907 59.373596 4.373414 -12.613629 -3.041878 55.587509 -4.763811 1.885598 -1.627424 -0.335910 0.208360 0.150030 -0.045070 
-0.727500 16.784690 -3.902900 -2.228305 1.648174 4.910886 -15.066855 13.380208 2.695663 11.303026 -1.065247 -8.857483 -5.822575 5.034117 6.941492 -0.317297 4.255992 3.373141 -0.069290 -0.315970 -0.119990 18.275082 -11.090045 2.497907 -12.209407 1.116832 -21.402777 7.683265 -5.898137 16.723359 0.188424 -3.567802 3.225163 -0.039820 0.606080 0.122620 -3.756846 -1.323922 -6.871481 8.783339 -3.734391 3.148103 -4.385572 -3.694788 5.392414 2.220198 -1.537595 -9.288693 -3.011584 0.172155 25.071970 -2.723140 -0.504010 2.322740 -11.168292 -2.539707 2.694106 -55.618582 -7.165483 -3.909850 23.932183 -21.774254 -5.454821 -4.081453 2.892458 0.108120 0.413230 -0.385860 0.158350 6.632184 3.729440 6.620091 58.682725 3.872908 -12.341409 3.364849 59.429005 -2.142109 1.882461 -1.744387 -0.337690 0.207690 0.144810 -0.041810 
-0.745400 16.795920 -3.899500 -2.198923 1.788850 5.196520 -15.045266 13.335603 2.737409 11.497758 -1.090127 -8.991911 -6.343957 5.075176 6.551263 -0.309343 4.276113 3.367353 -0.075920 -0.321880 -0.120090 18.294615 -11.084526 2.511971 -11.998724 1.208533 -21.557395 7.565949 -5.799200 16.508561 0.193428 -3.511599 3.252776 -0.045030 0.602180 0.112290 -3.818852 -1.259506 -6.921159 9.721135 -4.009953 3.494915 -5.664749 -3.837208 5.226181 2.690981 -1.748266 -9.457426 -3.230187 0.376599 24.491528 -2.841510 -0.255810 1.984340 -11.809281 -2.294882 2.581104 -53.629779 -5.174481 -4.637424 25.630747 -20.778205 -5.244674 -4.082631 2.883990 0.117500 0.406030 -0.382430 0.157200 6.210363 3.682233 7.117348 57.360961 2.635711 -12.419303 9.887778 63.947062 1.035920 1.881782 -1.838222 -0.345260 0.214800 0.143180 -0.044730 
-0.758830 16.799420 -3.889500 -1.944700 1.914369 5.668026 -15.034766 13.258463 2.774447 11.396941 -1.120450 -9.074314 -6.934272 5.078435 5.962011 -0.303311 4.305864 3.368523 -0.092090 -0.337310 -0.130690 18.310846 -11.067729 2.525348 -12.265923 1.245194 -21.837841 7.749196 -5.789760 16.192649 0.208521 -3.516933 3.255077 -0.047030 0.625340 0.114260 -3.860399 -1.159055 -6.942187 10.320807 -4.206169 3.535026 -6.934079 -3.962766 5.050059 3.232288 -1.720865 -9.470375 -2.959363 0.568259 23.368808 -3.217930 0.224880 2.209800 -12.312291 -1.566333 2.276971 -51.308592 -3.228340 -5.099560 26.133220 -19.957942 -4.806554 -4.122524 2.884084 0.100620 0.429570 -0.400830 0.157090 5.529581 2.978354 7.523811 55.879700 1.164829 -11.859000 18.404101 68.943842 6.113757 1.881269 -1.977038 -0.355280 0.217590 0.150420 -0.043280 
-0.770370 16.803300 -3.880310 -1.684457 2.260074 6.109379 -15.034790 13.196190 2.828305 11.347538 -1.157569 -9.215868 -7.653782 5.101794 5.346517 -0.278701 4.347108 3.364434 -0.115710 -0.359500 -0.153150 18.315240 -11.044868 2.523587 -12.420755 1.257946 -21.984220 7.732595 -5.729435 15.884963 0.226348 -3.508124 3.262745 -0.057320 0.648730 0.119810 -3.872200 -1.111533 -6.969392 10.687127 -4.447714 3.568431 -7.568344 -4.182157 4.880625 3.571245 -1.836559 -9.577606 -2.994342 0.572283 22.487415 -3.587980 0.403650 2.781220 -12.443163 -0.758200 2.053101 -49.906121 -1.297330 -5.596395 26.234651 -19.445723 -4.421315 -4.155773 2.893811 0.076160 0.451040 -0.418810 0.159460 4.903083 2.337620 7.988862 53.689288 -0.564223 -10.826502 28.997119 74.643667 13.810557 1.911952 -2.116215 -0.357490 0.212630 0.159280 -0.033330 
-0.776510 16.808370 -3.867910 -1.507884 2.562821 6.649643 -15.034191 13.120930 2.872640 11.384976 -1.210340 -9.398732 -8.296876 5.090100 4.678163 -0.260462 4.389228 3.361671 -0.117780 -0.356660 -0.172300 18.326177 -11.013351 2.516651 -12.470751 1.289287 -22.056642 7.638073 -5.579978 15.319226 0.244705 -3.483170 3.274934 -0.048060 0.679410 0.128060 -3.893558 -1.053010 -6.965218 11.226728 -4.546870 3.435106 -7.920277 -4.323303 4.573889 3.733498 -2.196862 -9.392683 -3.383958 0.519679 21.242060 -3.629990 0.192900 3.127750 -12.744105 0.758501 1.419622 -48.759426 0.172265 -5.907384 26.142366 -19.060515 -4.072111 -4.193767 2.910246 0.042880 0.474850 -0.442480 0.171960 4.830424 1.096993 8.341936 50.740517 -2.695975 -8.214927 47.046575 81.572125 29.073120 2.066275 -2.158760 -0.355170 0.211550 0.160870 -0.016360 
-0.778270 16.815890 -3.853690 -1.461859 3.036740 6.973289 -15.037444 13.091773 2.898212 11.471221 -1.228093 -9.546438 -8.528675 5.055370 4.278785 -0.254204 4.402116 3.357511 -0.118980 -0.353340 -0.181800 18.325373 -10.991765 2.514776 -12.421838 1.298833 -21.701029 7.633249 -5.441751 14.579976 0.251020 -3.454396 3.290904 -0.044080 0.689910 0.135460 -3.895893 -1.047859 -6.973945 11.736773 -4.566210 3.427953 -8.297552 -4.378891 4.376276 4.073404 -2.371092 -9.239190 -3.548614 0.333519 20.526748 -3.803110 0.065240 3.086120 -13.024206 2.109945 0.781617 -47.586218 1.414187 -6.186447 25.923018 -18.557264 -3.755402 -4.224292 2.910908 0.028040 0.486030 -0.450080 0.173940 4.383053 -0.170726 8.806824 48.397565 -3.879593 -2.520676 75.931374 88.682824 54.135025 3.369065 0.088793 -0.349960 0.210010 0.165900 -0.009380 
-0.774950 16.821460 -3.848230 -1.548139 3.480427 7.301385 -15.020871 13.046707 2.882475 11.545927 -1.276557 -9.986086 -8.448402 5.023546 4.415786 -0.282688 4.370810 3.355449 -0.109530 -0.342580 -0.174220 18.341495 -11.016483 2.541653 -12.205419 1.368201 -21.563642 7.564474 -5.296049 13.944239 0.248657 -3.415985 3.299890 -0.032800 0.687050 0.148540 -3.951637 -0.909660 -6.995805 12.232284 -4.331640 3.704823 -7.885004 -4.284135 3.383456 4.138744 -2.481304 -8.739686 -3.625294 0.204035 20.161779 -4.181120 0.145370 2.530050 -12.720259 3.368624 0.509007 -47.055508 2.609731 -6.496970 23.815459 -18.439479 -3.384885 -4.247788 2.901897 0.028850 0.491320 -0.445090 0.170300 3.938563 -1.170861 7.893521 45.935115 -6.997602 -13.061470 114.691021 75.794756 87.419732 2.600287 0.892479 -0.346330 0.209060 0.170900 -0.013290 
